<svg xmlns="http://www.w3.org/2000/svg" viewBox="0 0 480 300" width="480" height="300">
  <rect width="480" height="300" fill="#1c1c1e" rx="14"/>
  <rect x="30" y="30" width="160" height="240" rx="10" fill="#1f1f21" stroke="rgba(255,255,255,0.10)"/>
  <rect x="40" y="46" width="140" height="20" rx="4" fill="rgba(10,132,255,0.18)" stroke="rgba(10,132,255,0.4)"/>
  <rect x="40" y="72" width="140" height="18" rx="4" fill="rgba(255,255,255,0.05)"/>
  <rect x="40" y="96" width="140" height="18" rx="4" fill="rgba(255,255,255,0.05)"/>
  <rect x="40" y="120" width="140" height="18" rx="4" fill="rgba(255,255,255,0.05)"/>
  <rect x="40" y="144" width="140" height="18" rx="4" fill="rgba(255,255,255,0.05)"/>

  <rect x="206" y="46" width="244" height="60" rx="8" fill="#0c0c0e" stroke="rgba(255,255,255,0.10)"/>
  <text x="218" y="66" fill="rgba(255,255,255,0.85)" font-family="ui-monospace,monospace" font-size="11">$ cargo build --release</text>
  <text x="218" y="86" fill="rgba(255,255,255,0.5)" font-family="ui-monospace,monospace" font-size="10">Finished `release` profile in 58.13s</text>

  <rect x="206" y="118" width="244" height="36" rx="8" fill="rgba(255, 69, 58, 0.10)" stroke="rgba(255, 69, 58, 0.3)"/>
  <text x="218" y="140" fill="#ffb4ad" font-family="ui-monospace,monospace" font-size="11">- old_value: u32 = 0</text>

  <rect x="206" y="160" width="244" height="36" rx="8" fill="rgba(48, 209, 88, 0.10)" stroke="rgba(48, 209, 88, 0.3)"/>
  <text x="218" y="182" fill="#bdf0c9" font-family="ui-monospace,monospace" font-size="11">+ new_value: u64 = 0</text>

  <text x="240" y="252" fill="rgba(255,255,255,0.85)" text-anchor="middle" font-family="-apple-system,sans-serif" font-size="13" font-weight="600">Replay engine</text>
  <text x="240" y="270" fill="rgba(255,255,255,0.3)" text-anchor="middle" font-family="ui-monospace,monospace" font-size="10">screenshot — replace with PNG after demo</text>
</svg>
